#Comment line ignore any data following # character 
#Hierarchical Translation and Rotation (.htr) file 
[Header]	
#Header keywords are followed by a single value 
FileType HTR		#Single word string
DataType HTRS		#Translation followed by rotation and scale data
FileVersion 1		#integer
NumSegments 64		#integer
NumFrames 3		#integer
DataFrameRate 30		#integer, data frame rate in this file
EulerRotationOrder ZYX
CalibrationUnits mm
RotationUnits Degrees
GlobalAxisofGravity Y
BoneLengthAxis Y
ScaleFactor 1.00
[SegmentNames&Hierarchy]
#CHILD	PARENT
Pinger_Root GLOBAL
Pelvis Pinger_Root
L_Hip Pelvis
R_Hip Pelvis
Rear_Leg01 Pelvis
Spine1 Pelvis
L_Leg01 L_Hip
L_Leg02 L_Leg01
L_Leg03 L_Leg02
L_Foot L_Leg03
L_Toe1_01 L_Foot
L_Toe2_01 L_Foot
L_Toe3_01 L_Foot
planeAlignerLeft L_Foot
L_Toe1_02 L_Toe1_01
L_Toe1_03 L_Toe1_02
L_Toe2_02 L_Toe2_01
L_Toe2_03 L_Toe2_02
L_Toe3_02 L_Toe3_01
L_Toe3_03 L_Toe3_02
planeLockWeightLeft planeAlignerLeft
R_Leg01 R_Hip
R_Leg02 R_Leg01
R_Leg03 R_Leg02
R_Foot R_Leg03
planeAlignerRight R_Foot
R_Toe1_01 R_Foot
R_Toe2_01 R_Foot
R_Toe3_01 R_Foot
planeLockWeightRight planeAlignerRight
R_Toe1_02 R_Toe1_01
R_Toe1_03 R_Toe1_02
R_Toe2_02 R_Toe2_01
R_Toe2_03 R_Toe2_02
R_Toe3_02 R_Toe3_01
R_Toe3_03 R_Toe3_02
Rear_Leg02 Rear_Leg01
Rear_Leg03 Rear_Leg02
Rear_Leg04 Rear_Leg03
Rear_Foot Rear_Leg04
planeAlignerCenter Rear_Foot
Rear_Toe1_01 Rear_Foot
Rear_Toe2_01 Rear_Foot
Rear_Toe3_01 Rear_Foot
planeLockWeightCenter planeAlignerCenter
Rear_Toe1_02 Rear_Toe1_01
Rear_Toe1_03 Rear_Toe1_02
Rear_Toe2_02 Rear_Toe2_01
Rear_Toe2_03 Rear_Toe2_02
Rear_Toe3_02 Rear_Toe3_01
Rear_Toe3_03 Rear_Toe3_02
Back_Bone Spine1
Head Spine1
Motor_Bone Back_Bone
Ping_Mechanism Back_Bone
BN_LookIK Head
bottomMouth Head
L_Mouth01 Head
L_mouthFront Head
mouthGun Head
R_Mouth01 Head
R_mouthFront Head
TopMouth Head
weapon_bone Head
[BasePosition]
#SegmentName Tx, Ty, Tz, Rx, Ry, Rz, BoneLength
Pinger_Root 0.000000 0.000000 0.000000 -90.000000 0.000000 0.000000 10.000000 
Pelvis 0.000000 0.000000 0.000000 0.000000 0.000000 0.000000 10.000000 
L_Hip 0.000000 0.000000 0.000000 0.000000 0.000000 0.000000 10.000000 
R_Hip 0.000000 0.000000 0.000000 0.000000 0.000000 0.000000 10.000000 
Rear_Leg01 0.000000 0.000000 0.000000 0.000000 0.000000 0.000000 10.000000 
Spine1 0.000000 0.000000 0.000000 0.000000 0.000000 0.000000 10.000000 
L_Leg01 0.000000 0.000000 0.000000 0.000000 0.000000 0.000000 10.000000 
L_Leg02 0.000000 0.000000 0.000000 0.000000 0.000000 0.000000 10.000000 
L_Leg03 0.000000 0.000000 0.000000 0.000000 0.000000 0.000000 10.000000 
L_Foot 0.000000 0.000000 0.000000 0.000000 0.000000 0.000000 10.000000 
L_Toe1_01 0.000000 0.000000 0.000000 0.000000 0.000000 0.000000 10.000000 
L_Toe2_01 0.000000 0.000000 0.000000 0.000000 0.000000 0.000000 10.000000 
L_Toe3_01 0.000000 0.000000 0.000000 0.000000 0.000000 0.000000 10.000000 
planeAlignerLeft 0.000000 0.000000 0.000000 0.000000 0.000000 0.000000 10.000000 
L_Toe1_02 0.000000 0.000000 0.000000 0.000000 0.000000 0.000000 10.000000 
L_Toe1_03 0.000000 0.000000 0.000000 0.000000 0.000000 0.000000 10.000000 
L_Toe2_02 0.000000 0.000000 0.000000 0.000000 0.000000 0.000000 10.000000 
L_Toe2_03 0.000000 0.000000 0.000000 0.000000 0.000000 0.000000 10.000000 
L_Toe3_02 0.000000 0.000000 0.000000 0.000000 0.000000 0.000000 10.000000 
L_Toe3_03 0.000000 0.000000 0.000000 0.000000 0.000000 0.000000 10.000000 
planeLockWeightLeft 0.000000 0.000000 0.000000 0.000000 0.000000 0.000000 10.000000 
R_Leg01 0.000000 0.000000 0.000000 0.000000 0.000000 0.000000 10.000000 
R_Leg02 0.000000 0.000000 0.000000 0.000000 0.000000 0.000000 10.000000 
R_Leg03 0.000000 0.000000 0.000000 0.000000 0.000000 0.000000 10.000000 
R_Foot 0.000000 0.000000 0.000000 0.000000 0.000000 0.000000 10.000000 
planeAlignerRight 0.000000 0.000000 0.000000 0.000000 0.000000 0.000000 10.000000 
R_Toe1_01 0.000000 0.000000 0.000000 0.000000 0.000000 0.000000 10.000000 
R_Toe2_01 0.000000 0.000000 0.000000 0.000000 0.000000 0.000000 10.000000 
R_Toe3_01 0.000000 0.000000 0.000000 0.000000 0.000000 0.000000 10.000000 
planeLockWeightRight 0.000000 0.000000 0.000000 0.000000 0.000000 0.000000 10.000000 
R_Toe1_02 0.000000 0.000000 0.000000 0.000000 0.000000 0.000000 10.000000 
R_Toe1_03 0.000000 0.000000 0.000000 0.000000 0.000000 0.000000 10.000000 
R_Toe2_02 0.000000 0.000000 0.000000 0.000000 0.000000 0.000000 10.000000 
R_Toe2_03 0.000000 0.000000 0.000000 0.000000 0.000000 0.000000 10.000000 
R_Toe3_02 0.000000 0.000000 0.000000 0.000000 0.000000 0.000000 10.000000 
R_Toe3_03 0.000000 0.000000 0.000000 0.000000 0.000000 0.000000 10.000000 
Rear_Leg02 0.000000 0.000000 0.000000 0.000000 0.000000 0.000000 10.000000 
Rear_Leg03 0.000000 0.000000 0.000000 0.000000 0.000000 0.000000 10.000000 
Rear_Leg04 0.000000 0.000000 0.000000 0.000000 0.000000 0.000000 10.000000 
Rear_Foot 0.000000 0.000000 0.000000 0.000000 0.000000 0.000000 10.000000 
planeAlignerCenter 0.000000 0.000000 0.000000 0.000000 0.000000 0.000000 10.000000 
Rear_Toe1_01 0.000000 0.000000 0.000000 0.000000 0.000000 0.000000 10.000000 
Rear_Toe2_01 0.000000 0.000000 0.000000 0.000000 0.000000 0.000000 10.000000 
Rear_Toe3_01 0.000000 0.000000 0.000000 0.000000 0.000000 0.000000 10.000000 
planeLockWeightCenter 0.000000 0.000000 0.000000 0.000000 0.000000 0.000000 10.000000 
Rear_Toe1_02 0.000000 0.000000 0.000000 0.000000 0.000000 0.000000 10.000000 
Rear_Toe1_03 0.000000 0.000000 0.000000 0.000000 0.000000 0.000000 10.000000 
Rear_Toe2_02 0.000000 0.000000 0.000000 0.000000 0.000000 0.000000 10.000000 
Rear_Toe2_03 0.000000 0.000000 0.000000 0.000000 0.000000 0.000000 10.000000 
Rear_Toe3_02 0.000000 0.000000 0.000000 0.000000 0.000000 0.000000 10.000000 
Rear_Toe3_03 0.000000 0.000000 0.000000 0.000000 0.000000 0.000000 10.000000 
Back_Bone 0.000000 0.000000 0.000000 0.000000 0.000000 0.000000 10.000000 
Head 0.000000 0.000000 0.000000 0.000000 0.000000 0.000000 10.000000 
Motor_Bone 0.000000 0.000000 0.000000 0.000000 0.000000 0.000000 10.000000 
Ping_Mechanism 0.000000 0.000000 0.000000 0.000000 0.000000 0.000000 10.000000 
BN_LookIK 0.000000 0.000000 0.000000 0.000000 0.000000 0.000000 10.000000 
bottomMouth 0.000000 0.000000 0.000000 0.000000 0.000000 0.000000 10.000000 
L_Mouth01 0.000000 0.000000 0.000000 0.000000 0.000000 0.000000 10.000000 
L_mouthFront 0.000000 0.000000 0.000000 0.000000 0.000000 0.000000 10.000000 
mouthGun 0.000000 0.000000 0.000000 0.000000 0.000000 0.000000 10.000000 
R_Mouth01 0.000000 0.000000 0.000000 0.000000 0.000000 0.000000 10.000000 
R_mouthFront 0.000000 0.000000 0.000000 0.000000 0.000000 0.000000 10.000000 
TopMouth 0.000000 0.000000 0.000000 0.000000 0.000000 0.000000 10.000000 
weapon_bone 0.000000 0.000000 0.000000 0.000000 0.000000 0.000000 10.000000 
#Beginning of Data. Separated by tabs
#Fr	Tx	Ty	Tz	Rx	Ry	Rz	SF
[Pinger_Root]
11 -1296.296631 0.000000 0.000000 -0.000075 -0.000000 -0.000020 1296.296631
12 -1425.926270 0.000000 0.000000 -0.000075 -0.000000 -0.000020 1425.926270
13 -1555.555786 0.000000 0.000000 -0.000075 -0.000000 -0.000020 1555.555908
[Pelvis]
11 -856.816650 -325.231445 5286.960938 79.042305 -78.116501 -38.966579 5365.805664
12 -863.205200 -319.174561 5273.265625 72.409294 -79.730873 -31.220480 5352.974121
13 -857.482971 -307.925262 5237.098145 65.954224 -80.224449 -23.398756 5315.758789
[L_Hip]
11 5.766392 125.831482 872.656799 -178.250168 -81.786369 87.376007 881.701050
12 5.766392 125.831482 872.656799 -178.250168 -81.786369 87.376007 881.701050
13 5.766392 125.831482 872.656799 -178.250168 -81.786369 87.376007 881.701050
[R_Hip]
11 5.765438 125.836372 -872.654907 -1.748770 81.786041 87.376961 881.699829
12 5.765438 125.836372 -872.654907 -1.748770 81.786041 87.376961 881.699829
13 5.765438 125.836372 -872.654907 -1.748770 81.786041 87.376961 881.699829
[Rear_Leg01]
11 -192.298416 -925.602966 -0.001907 169.882553 8.212594 177.518433 945.367432
12 -192.298416 -925.602966 -0.001907 169.128983 8.367779 165.574951 945.367432
13 -192.298416 -925.602966 -0.001907 168.509094 9.123756 157.566040 945.367432
[Spine1]
11 290.604584 5.007505 0.000477 -23.934902 13.042125 40.200024 290.647736
12 290.604584 5.007505 0.000477 -25.407007 12.893647 38.039089 290.647736
13 290.604584 5.007505 0.000477 -27.257666 12.708226 36.522446 290.647736
[L_Leg01]
11 761.932007 -0.002384 -0.069261 67.233231 8.886054 -90.864845 761.932068
12 761.932007 -0.002384 -0.069261 67.948112 8.024998 -93.033287 761.932068
13 761.932007 -0.002384 -0.069261 68.752068 8.374445 -95.164635 761.932068
[L_Leg02]
11 1441.140503 -0.000954 -0.000715 -1.151743 0.938456 -85.322128 1441.140503
12 1441.140503 -0.000954 -0.000715 -1.150203 0.943783 -83.798088 1441.140503
13 1441.140503 -0.000954 -0.000715 -1.161344 0.936354 -82.904243 1441.140503
[L_Leg03]
11 1686.963989 -0.000715 -0.000954 0.140827 -0.003701 72.995689 1686.963989
12 1686.963989 -0.000715 -0.000954 0.140843 -0.003030 72.449104 1686.963989
13 1686.963989 -0.000715 -0.000954 0.140829 -0.003626 72.934181 1686.963989
[L_Foot]
11 3041.570068 -30.715107 11.297464 -3.415823 16.069904 97.018196 3041.746094
12 3041.570068 -30.715107 11.297464 -2.284386 15.968185 98.143845 3041.746094
13 3041.570068 -30.715107 11.297464 -1.491395 15.686234 98.724754 3041.746094
[L_Toe1_01]
11 -188.216690 -224.732346 -21.137953 89.321892 -1.870080 -162.483978 293.899567
12 -188.216690 -224.732346 -21.137953 89.302483 -1.855433 -161.674225 293.899567
13 -188.216690 -224.732346 -21.137953 89.283257 -1.840511 -160.864487 293.899567
[L_Toe2_01]
11 200.746536 -219.926590 148.838394 -77.646446 -13.444320 -44.894249 332.896027
12 200.746536 -219.926590 148.838394 -77.484428 -13.353902 -45.596081 332.896027
13 200.746536 -219.926590 148.838394 -77.323631 -13.261557 -46.297390 332.896027
[L_Toe3_01]
11 188.832520 -219.859131 -191.078659 -106.106750 16.724405 -46.813686 347.140900
12 188.832520 -219.859131 -191.078659 -106.313545 16.599476 -47.524700 347.140900
13 188.832520 -219.859131 -191.078659 -106.518547 16.472092 -48.234753 347.140900
[planeAlignerLeft]
11 -49.599312 -624.821899 0.012512 0.000000 -90.000000 -90.001900 626.787415
12 -52.668961 -633.394165 0.010376 0.000000 -90.000000 -90.001900 635.580200
13 -55.738609 -641.966492 0.008240 0.000000 -90.000000 -90.001900 644.381653
[L_Toe1_02]
11 413.761139 0.000477 0.000000 0.001400 -23.953726 0.001400 413.761139
12 413.761139 0.000477 0.000000 0.001398 -24.174086 0.001398 413.761139
13 413.761139 0.000477 0.000000 0.001396 -24.394444 0.001396 413.761139
[L_Toe1_03]
11 464.317322 0.000358 -0.000089 0.008443 74.016258 0.008443 464.317322
12 464.317322 0.000358 -0.000089 0.007904 72.921776 0.007904 464.317322
13 464.317322 0.000358 -0.000089 0.007278 71.438454 0.007278 464.317322
[L_Toe2_02]
11 342.235809 -0.000477 0.000238 0.001179 -78.754898 0.001179 342.235809
12 342.235809 -0.000477 0.000238 0.001179 -78.594139 0.001179 342.235809
13 342.235809 -0.000477 0.000238 0.001180 -78.433380 0.001180 342.235809
[L_Toe2_03]
11 420.210846 -0.000715 0.000000 -179.998032 72.350952 -179.994492 420.210846
12 420.210846 -0.000715 0.000000 -179.997940 72.737938 -179.994400 420.210846
13 420.210846 -0.000715 0.000000 -179.997849 73.124870 -179.994324 420.210846
[L_Toe3_02]
11 329.270111 0.000954 0.000000 0.001176 -82.140976 0.001176 329.270111
12 329.270111 0.000954 0.000000 0.001176 -82.195259 0.001176 329.270111
13 329.270111 0.000954 0.000000 0.001176 -81.989990 0.001176 329.270111
[L_Toe3_03]
11 439.137451 -0.001907 0.000954 -179.998306 70.887352 -179.994766 439.137451
12 439.137451 -0.001907 0.000954 -179.998306 70.984467 -179.994751 439.137451
13 439.137451 -0.001907 0.000954 -179.998184 71.624863 -179.994629 439.137451
[planeLockWeightLeft]
11 999.998779 0.098008 0.076311 -0.011826 -0.004376 0.005620 999.998840
12 999.998779 0.098005 0.076302 -0.011826 -0.004376 0.005620 999.998840
13 999.998779 0.098003 0.076293 -0.011826 -0.004376 0.005620 999.998840
[R_Leg01]
11 761.455627 -0.001907 -0.000358 73.592941 -11.832319 64.297134 761.455688
12 761.455627 -0.001907 -0.000358 69.006668 -23.098055 68.169235 761.455688
13 761.455627 -0.001907 -0.000358 64.535019 -27.169867 71.060005 761.455688
[R_Leg02]
11 1441.140625 0.000000 -0.000238 0.175704 -0.033111 -92.750900 1441.140625
12 1441.140625 0.000000 -0.000238 0.144046 -0.074905 -105.176559 1441.140625
13 1441.140625 0.000000 -0.000238 0.144473 -0.080514 -112.600502 1441.140625
[R_Leg03]
11 1686.963989 0.000954 0.001431 -0.096543 0.015946 83.990547 1686.963989
12 1686.963989 0.000954 0.001431 -0.107090 0.009342 81.244949 1686.963989
13 1686.963989 0.000954 0.001431 -0.100017 0.010841 82.350746 1686.963989
[R_Foot]
11 3041.560059 -30.531288 -11.204481 43.627293 -25.086535 47.674828 3041.734131
12 3041.560059 -30.531288 -11.204481 49.126076 -24.816475 45.593636 3041.734131
13 3041.560059 -30.531288 -11.204481 54.046265 -24.894121 42.242168 3041.734131
[planeAlignerRight]
11 -86.736801 -841.214050 17.685087 0.000000 -89.960434 -90.005180 845.858826
12 -111.294144 -840.350891 16.789320 0.000000 -89.960434 -90.005180 847.854858
13 -135.851486 -839.487732 15.893553 0.000000 -89.960434 -90.005180 850.557373
[R_Toe1_01]
11 -188.383347 -224.864899 21.052242 91.184456 0.726803 -143.684143 294.101532
12 -188.383347 -224.864899 21.052242 91.183022 0.715701 -143.176346 294.101532
13 -188.383347 -224.864899 21.052242 91.181511 0.704613 -142.668579 294.101532
[R_Toe2_01]
11 200.637817 -220.002121 -148.787384 -105.165459 8.880979 -61.005672 332.857574
12 200.637817 -220.002121 -148.787384 -105.259506 9.144394 -61.088741 332.857574
13 200.637817 -220.002121 -148.787384 -105.354027 9.407677 -61.172337 332.857574
[R_Toe3_01]
11 188.606735 -220.092957 191.126343 -69.577972 -12.828703 -63.474327 347.192566
12 188.606735 -220.092957 191.126343 -69.471016 -13.139344 -63.583187 347.192566
13 188.606735 -220.092957 191.126343 -69.363297 -13.449776 -63.692764 347.192566
[planeLockWeightRight]
11 647.999146 -0.000153 0.076294 -0.011823 -0.004379 -0.000027 647.999146
12 351.999207 -0.000305 0.076294 -0.011823 -0.004379 -0.000027 351.999207
13 103.999893 -0.000610 0.076447 -0.011823 -0.004379 -0.000027 103.999916
[R_Toe1_02]
11 413.762085 0.000477 -0.000119 0.001388 -25.470104 0.001388 413.762085
12 413.762085 0.000477 -0.000119 0.001394 -24.735418 0.001394 413.762085
13 413.762085 0.000477 -0.000119 0.001404 -23.385267 0.001404 413.762085
[R_Toe1_03]
11 464.317810 0.000000 0.001088 0.002996 43.870403 0.002996 464.317810
12 464.317810 0.000000 0.001088 0.000594 39.246830 -0.003276 464.317810
13 464.317810 0.000000 0.001088 0.000767 33.623108 -0.003200 464.317810
[R_Toe2_02]
11 342.234741 -0.000954 0.000238 -0.000581 -73.019127 -0.000581 342.234741
12 342.234741 -0.000954 0.000238 -0.001464 -73.862213 -0.001464 342.234741
13 342.234741 -0.000954 0.000238 -0.002344 -74.705185 -0.002344 342.234741
[R_Toe2_03]
11 420.210846 0.000715 -0.000268 0.012373 87.014824 0.010624 420.210846
12 420.210846 0.000715 -0.000268 -0.111538 89.418190 -0.115035 420.210846
13 420.210846 0.000715 -0.000268 -179.968109 87.814926 -179.971603 420.210846
[R_Toe3_02]
11 329.270355 -0.000477 -0.000954 0.001182 -76.487976 0.001182 329.270355
12 329.270355 -0.000477 -0.000954 0.001181 -77.270447 0.001181 329.270355
13 329.270355 -0.000477 -0.000954 0.001180 -78.052879 0.001180 329.270355
[R_Toe3_03]
11 439.137939 0.000238 0.001431 -0.035385 88.041756 -0.031888 439.137939
12 439.137939 0.000238 0.001431 0.000000 89.489479 0.003503 439.137939
13 439.137939 0.000238 0.001431 -179.979645 87.021324 -179.976135 439.137939
[Rear_Leg02]
11 1162.777710 -0.029802 0.005960 9.651148 -14.401629 -125.083702 1162.777710
12 1162.777710 -0.029802 0.005960 7.322022 -13.090284 -134.892471 1162.777710
13 1162.777710 -0.029802 0.005960 5.629119 -10.685321 -144.530151 1162.777710
[Rear_Leg03]
11 607.192505 -0.013351 -0.073195 0.010311 -0.005465 72.208382 607.192505
12 607.192505 -0.013351 -0.073195 0.010382 -0.005327 70.681068 607.192505
13 607.192505 -0.013351 -0.073195 0.010402 -0.005286 70.233009 607.192505
[Rear_Leg04]
11 995.874512 -0.020504 -0.011921 -0.041431 -0.015890 75.395332 995.874573
12 995.874512 -0.020504 -0.011921 -0.040942 -0.017109 72.002151 995.874573
13 995.874512 -0.020504 -0.011921 -0.040780 -0.017492 70.929840 995.874573
[Rear_Foot]
11 3096.176270 -0.067472 -0.041425 -55.727558 69.411690 88.757912 3096.176270
12 3096.176270 -0.067472 -0.041425 -54.220619 71.555084 95.219658 3096.176270
13 3096.176270 -0.067472 -0.041425 -49.496204 73.999680 104.176094 3096.176270
[planeAlignerCenter]
11 1.157837 89.128647 -693.890747 0.000009 0.000003 -179.999985 699.592468
12 1.156006 129.134338 -650.130432 0.000009 0.000003 -179.999985 662.832275
13 1.155167 114.053566 -651.593445 0.000009 0.000003 -179.999985 661.500977
[Rear_Toe1_01]
11 0.653352 83.966492 -371.173737 0.058427 21.642759 90.032394 380.553192
12 0.653352 83.966492 -371.173737 0.053636 20.351681 90.028198 380.553192
13 0.653352 83.966492 -371.173737 0.053150 19.797649 90.026459 380.553192
[Rear_Toe2_01]
11 178.200760 -294.826019 -362.060547 1.108998 45.924828 -69.493607 499.765686
12 178.200760 -294.826019 -362.060547 1.551829 42.209290 -68.370544 499.765686
13 178.200760 -294.826019 -362.060547 1.333295 42.493061 -68.828033 499.765686
[Rear_Toe3_01]
11 -153.359680 -308.780914 -362.060852 -1.369652 45.939968 -113.019363 499.952881
12 -153.359680 -308.780914 -362.060852 -1.853377 42.246937 -114.262627 499.952881
13 -153.359680 -308.780914 -362.060852 -1.612164 42.520065 -113.757027 499.952881
[planeLockWeightCenter]
11 999.999756 0.000421 0.076341 -0.011814 -0.004373 -0.000015 999.999756
12 999.999817 0.000408 0.076331 -0.011814 -0.004373 -0.000015 999.999817
13 999.999817 0.000396 0.076321 -0.011814 -0.004373 -0.000015 999.999817
[Rear_Toe1_02]
11 379.707825 0.194073 0.000477 -0.000767 -33.624729 0.000838 379.707855
12 379.707825 0.194073 0.000477 -0.000767 -33.624729 0.000838 379.707855
13 379.707825 0.194073 0.000477 -0.000767 -33.624729 0.000838 379.707855
[Rear_Toe1_03]
11 500.129700 0.165701 0.000119 0.007016 70.741676 0.007016 500.129761
12 500.129700 0.165701 0.000119 -0.004503 65.552658 -0.000926 500.129761
13 500.129700 0.165701 0.000119 -0.004891 68.716400 -0.001333 500.129761
[Rear_Toe2_02]
11 340.494507 0.000238 -0.000954 0.001174 -86.336815 0.001174 340.494507
12 340.494507 0.000238 -0.000954 -0.002323 -89.337074 -0.002323 340.494507
13 340.494507 0.000238 -0.000954 0.001174 -88.650558 0.001174 340.494507
[Rear_Toe2_03]
11 433.103577 0.000000 0.000238 -179.992889 77.675629 -179.996399 433.103546
12 433.103577 0.000000 0.000238 -179.995102 68.734352 -179.998672 433.103546
13 433.103577 0.000000 0.000238 -179.994766 70.941994 -179.998306 433.103546
[Rear_Toe3_02]
11 340.494141 -0.000358 -0.000477 0.001174 -86.235168 0.001174 340.494171
12 340.494141 -0.000358 -0.000477 0.001174 -89.239471 0.001174 340.494171
13 340.494141 -0.000358 -0.000477 0.001174 -88.546936 0.001174 340.494171
[Rear_Toe3_03]
11 433.103577 0.001431 -0.000238 -179.996277 77.955276 -179.992767 433.103546
12 433.103577 0.001431 -0.000238 -179.998611 69.100243 -179.995056 433.103546
13 433.103577 0.001431 -0.000238 -179.998245 71.276306 -179.994690 433.103546
[Back_Bone]
11 1312.175781 -701.934692 0.000954 -2.745125 -3.506787 -82.036652 1488.125488
12 1312.175781 -701.934692 0.000954 -2.553530 -3.578833 -81.561256 1488.125488
13 1312.175781 -701.934692 0.000954 -2.362533 -3.652460 -81.086090 1488.125488
[Head]
11 1406.159424 809.709290 0.001431 -12.356455 5.949658 -1.285533 1622.625488
12 1406.159424 809.709290 0.001431 -12.199339 5.634362 -0.839941 1622.625488
13 1406.159424 809.709290 0.001431 -11.939713 5.333899 0.480737 1622.625488
[Motor_Bone]
11 1158.364380 -417.834747 0.000477 -1.845117 -0.485017 -106.470413 1231.419434
12 1158.364380 -417.834747 0.000477 -1.729657 -0.306488 -106.290817 1231.419434
13 1158.364380 -417.834747 0.000477 -1.440879 0.000172 -105.983208 1231.419434
[Ping_Mechanism]
11 1184.497192 -401.443176 40.756912 0.000103 -0.000053 82.120995 1251.339966
12 1192.236328 -409.261169 40.122990 0.000103 -0.000053 82.120995 1261.162964
13 1197.410278 -413.859833 42.025459 0.000103 -0.000053 82.120995 1267.610840
[BN_LookIK]
11 193.241119 1380.371704 -0.002861 0.000000 89.965736 -31.038179 1393.832153
12 193.241119 1380.371704 -0.002861 0.000000 89.965736 -31.038179 1393.832153
13 193.241119 1380.371704 -0.002861 0.000000 89.965736 -31.038179 1393.832153
[bottomMouth]
11 -435.092926 615.759399 -0.000954 -0.000022 0.000016 73.527184 753.966492
12 -435.092926 615.759399 -0.000954 -0.000022 0.000016 73.527184 753.966492
13 -435.092926 615.759399 -0.000954 -0.000022 0.000016 73.527184 753.966492
[L_Mouth01]
11 554.440979 7.658243 838.222046 150.204178 23.759130 109.605339 1005.027161
12 554.440979 7.658243 838.222046 150.204178 23.759130 109.605339 1005.027161
13 554.440979 7.658243 838.222046 150.204178 23.759130 109.605339 1005.027161
[L_mouthFront]
11 551.629089 934.514771 339.150421 0.000081 2.804060 79.119301 1136.941284
12 551.629089 934.514771 339.150421 0.000081 2.804060 79.119301 1136.941284
13 551.629089 934.514771 339.150421 0.000081 2.804060 79.119301 1136.941284
[mouthGun]
11 55.332661 1627.420898 0.000000 0.000023 0.000009 -11.038128 1628.361328
12 55.332661 1627.420898 0.000000 0.000023 0.000009 -11.038128 1628.361328
13 55.332661 1627.420898 0.000000 0.000023 0.000009 -11.038128 1628.361328
[R_Mouth01]
11 554.442383 7.659197 -838.223938 29.795891 -23.759109 109.605331 1005.029541
12 554.442383 7.659197 -838.223938 29.795891 -23.759109 109.605331 1005.029541
13 554.442383 7.659197 -838.223938 29.795891 -23.759109 109.605331 1005.029541
[R_mouthFront]
11 551.629089 934.514282 -339.151367 0.000029 -2.803930 79.119133 1136.941162
12 551.629089 934.514282 -339.151367 0.000029 -2.803930 79.119133 1136.941162
13 551.629089 934.514282 -339.151367 0.000029 -2.803930 79.119133 1136.941162
[TopMouth]
11 461.269867 -56.106091 -0.008583 -0.000059 -0.000268 92.025169 464.669525
12 461.269867 -56.106091 -0.008583 -0.000059 -0.000268 92.025169 464.669525
13 461.269867 -56.106091 -0.008583 -0.000059 -0.000268 92.025169 464.669525
[weapon_bone]
11 -987.239868 1448.372803 0.001431 0.000000 89.965736 -31.038221 1752.833740
12 -987.239868 1448.372803 0.001431 0.000000 89.965736 -31.038221 1752.833740
13 -987.239868 1448.372803 0.001431 0.000000 89.965736 -31.038221 1752.833740
